<svg width="25" height="25" viewBox="0 0 25 25" fill="none" xmlns="http://www.w3.org/2000/svg">
<path d="M13.0547 6.23719C14.138 6.23719 15.4959 5.50483 16.3045 4.52836C17.0369 3.64342 17.5709 2.40757 17.5709 1.17171C17.5709 1.00388 17.5556 0.836048 17.5251 0.69873C16.3198 0.744503 14.8703 1.50738 14.0006 2.52963C13.3141 3.30776 12.6885 4.52836 12.6885 5.77947C12.6885 5.96256 12.719 6.14565 12.7343 6.20668C12.8106 6.22193 12.9326 6.23719 13.0547 6.23719ZM9.2403 24.6987C10.7203 24.6987 11.3764 23.707 13.2225 23.707C15.0992 23.707 15.5111 24.6682 17.1589 24.6682C18.7762 24.6682 19.8595 23.173 20.8818 21.7083C22.0261 20.0299 22.499 18.3821 22.5296 18.3059C22.4228 18.2753 19.3255 17.009 19.3255 13.454C19.3255 10.372 21.7667 8.98354 21.904 8.87673C20.2867 6.5576 17.8303 6.49657 17.1589 6.49657C15.3433 6.49657 13.8633 7.59511 12.9326 7.59511C11.9256 7.59511 10.5982 6.5576 9.0267 6.5576C6.03624 6.5576 3 9.02931 3 13.6981C3 16.597 4.12905 19.6638 5.51748 21.6472C6.70756 23.3256 7.74507 24.6987 9.2403 24.6987Z" fill="black"/>
</svg>
