<svg width="24" height="24" viewBox="0 0 24 24" fill="none" xmlns="http://www.w3.org/2000/svg">
<mask id="path-1-inside-1_2210_20152" fill="white">
<path d="M19.5 4H16.5V2.5C16.5 2.36739 16.4473 2.24021 16.3536 2.14645C16.2598 2.05268 16.1326 2 16 2C15.8674 2 15.7402 2.05268 15.6464 2.14645C15.5527 2.24021 15.5 2.36739 15.5 2.5V4H8.5V2.5C8.5 2.36739 8.44732 2.24021 8.35355 2.14645C8.25979 2.05268 8.13261 2 8 2C7.86739 2 7.74021 2.05268 7.64645 2.14645C7.55268 2.24021 7.5 2.36739 7.5 2.5V4H4.5C3.8372 4.00079 3.20178 4.26444 2.73311 4.73311C2.26444 5.20178 2.00079 5.8372 2 6.5V19.5C2.00079 20.1628 2.26444 20.7982 2.73311 21.2669C3.20178 21.7356 3.8372 21.9992 4.5 22H19.5C20.1629 21.9995 20.7985 21.7359 21.2672 21.2672C21.7359 20.7985 21.9995 20.1629 22 19.5V6.5C21.9995 5.83712 21.7359 5.20154 21.2672 4.73282C20.7985 4.26409 20.1629 4.00053 19.5 4ZM21 19.5C21 19.8978 20.842 20.2794 20.5607 20.5607C20.2794 20.842 19.8978 21 19.5 21H4.5C4.10218 21 3.72064 20.842 3.43934 20.5607C3.15804 20.2794 3 19.8978 3 19.5V11H21V19.5ZM21 10H3V6.5C3 5.672 3.67 5 4.5 5H7.5V6.5C7.5 6.63261 7.55268 6.75979 7.64645 6.85355C7.74021 6.94732 7.86739 7 8 7C8.13261 7 8.25979 6.94732 8.35355 6.85355C8.44732 6.75979 8.5 6.63261 8.5 6.5V5H15.5V6.5C15.5 6.63261 15.5527 6.75979 15.6464 6.85355C15.7402 6.94732 15.8674 7 16 7C16.1326 7 16.2598 6.94732 16.3536 6.85355C16.4473 6.75979 16.5 6.63261 16.5 6.5V5H19.5C19.8978 5 20.2794 5.15804 20.5607 5.43934C20.842 5.72064 21 6.10218 21 6.5V10Z"/>
</mask>
<path d="M19.5 4H16.5V2.5C16.5 2.36739 16.4473 2.24021 16.3536 2.14645C16.2598 2.05268 16.1326 2 16 2C15.8674 2 15.7402 2.05268 15.6464 2.14645C15.5527 2.24021 15.5 2.36739 15.5 2.5V4H8.5V2.5C8.5 2.36739 8.44732 2.24021 8.35355 2.14645C8.25979 2.05268 8.13261 2 8 2C7.86739 2 7.74021 2.05268 7.64645 2.14645C7.55268 2.24021 7.5 2.36739 7.5 2.5V4H4.5C3.8372 4.00079 3.20178 4.26444 2.73311 4.73311C2.26444 5.20178 2.00079 5.8372 2 6.5V19.5C2.00079 20.1628 2.26444 20.7982 2.73311 21.2669C3.20178 21.7356 3.8372 21.9992 4.5 22H19.5C20.1629 21.9995 20.7985 21.7359 21.2672 21.2672C21.7359 20.7985 21.9995 20.1629 22 19.5V6.5C21.9995 5.83712 21.7359 5.20154 21.2672 4.73282C20.7985 4.26409 20.1629 4.00053 19.5 4ZM21 19.5C21 19.8978 20.842 20.2794 20.5607 20.5607C20.2794 20.842 19.8978 21 19.5 21H4.5C4.10218 21 3.72064 20.842 3.43934 20.5607C3.15804 20.2794 3 19.8978 3 19.5V11H21V19.5ZM21 10H3V6.5C3 5.672 3.67 5 4.5 5H7.5V6.5C7.5 6.63261 7.55268 6.75979 7.64645 6.85355C7.74021 6.94732 7.86739 7 8 7C8.13261 7 8.25979 6.94732 8.35355 6.85355C8.44732 6.75979 8.5 6.63261 8.5 6.5V5H15.5V6.5C15.5 6.63261 15.5527 6.75979 15.6464 6.85355C15.7402 6.94732 15.8674 7 16 7C16.1326 7 16.2598 6.94732 16.3536 6.85355C16.4473 6.75979 16.5 6.63261 16.5 6.5V5H19.5C19.8978 5 20.2794 5.15804 20.5607 5.43934C20.842 5.72064 21 6.10218 21 6.5V10Z" fill="black"/>
<path d="M16.5 4H15.5V5H16.5V4ZM16 2V1V2ZM15.5 4V5H16.5V4H15.5ZM8.5 4H7.5V5H8.5V4ZM8 2V1V2ZM7.5 4V5H8.5V4H7.5ZM4.5 4V3L4.4988 3L4.5 4ZM2 6.5L1 6.4988V6.5H2ZM2 19.5H0.999999L1 19.5012L2 19.5ZM4.5 22L4.4988 23H4.5V22ZM19.5 22V23H19.5008L19.5 22ZM22 19.5L23 19.5008V19.5H22ZM22 6.5H23V6.4992L22 6.5ZM3 11V10H2V11H3ZM21 11H22V10H21V11ZM21 10V11H22V10H21ZM3 10H2V11H3V10ZM7.5 5H8.5V4H7.5V5ZM8.5 5V4H7.5V5H8.5ZM15.5 5H16.5V4H15.5V5ZM16.5 5V4H15.5V5H16.5ZM19.5 3H16.5V5H19.5V3ZM17.5 4V2.5H15.5V4H17.5ZM17.5 2.5C17.5 2.10218 17.342 1.72065 17.0607 1.43934L15.6464 2.85355C15.5527 2.75978 15.5 2.63261 15.5 2.5H17.5ZM17.0607 1.43934C16.7794 1.15804 16.3978 1 16 1V3C15.8674 3 15.7402 2.94732 15.6464 2.85355L17.0607 1.43934ZM16 1C15.6022 1 15.2206 1.15804 14.9393 1.43934L16.3536 2.85355C16.2598 2.94732 16.1326 3 16 3V1ZM14.9393 1.43934C14.658 1.72065 14.5 2.10218 14.5 2.5H16.5C16.5 2.63261 16.4473 2.75978 16.3536 2.85355L14.9393 1.43934ZM14.5 2.5V4H16.5V2.5H14.5ZM15.5 3H8.5V5H15.5V3ZM9.5 4V2.5H7.5V4H9.5ZM9.5 2.5C9.5 2.10218 9.34197 1.72065 9.06066 1.43934L7.64645 2.85355C7.55268 2.75978 7.5 2.63261 7.5 2.5H9.5ZM9.06066 1.43934C8.77936 1.15804 8.39782 1 8 1V3C7.86739 3 7.74022 2.94732 7.64645 2.85355L9.06066 1.43934ZM8 1C7.60217 1 7.22064 1.15804 6.93934 1.43934L8.35355 2.85355C8.25979 2.94732 8.13261 3 8 3V1ZM6.93934 1.43934C6.65804 1.72064 6.5 2.10217 6.5 2.5H8.5C8.5 2.63261 8.44732 2.75979 8.35355 2.85355L6.93934 1.43934ZM6.5 2.5V4H8.5V2.5H6.5ZM7.5 3H4.5V5H7.5V3ZM4.4988 3C3.5712 3.00111 2.68191 3.37009 2.026 4.026L3.44022 5.44022C3.72164 5.15879 4.1032 5.00048 4.5012 5L4.4988 3ZM2.026 4.026C1.37009 4.68192 1.00111 5.5712 1 6.4988L3 6.5012C3.00048 6.1032 3.15879 5.72164 3.44022 5.44022L2.026 4.026ZM1 6.5V19.5H3V6.5H1ZM1 19.5012C1.00111 20.4288 1.37009 21.3181 2.026 21.974L3.44022 20.5598C3.15879 20.2784 3.00048 19.8968 3 19.4988L1 19.5012ZM2.026 21.974C2.68191 22.6299 3.5712 22.9989 4.4988 23L4.5012 21C4.1032 20.9995 3.72164 20.8412 3.44022 20.5598L2.026 21.974ZM4.5 23H19.5V21H4.5V23ZM19.5008 23C20.4286 22.9993 21.3182 22.6304 21.9743 21.9743L20.5601 20.5601C20.2787 20.8415 19.8971 20.9997 19.4992 21L19.5008 23ZM21.9743 21.9743C22.6304 21.3182 22.9993 20.4286 23 19.5008L21 19.4992C20.9997 19.8971 20.8415 20.2787 20.5601 20.5601L21.9743 21.9743ZM23 19.5V6.5H21V19.5H23ZM23 6.4992C22.9993 5.57138 22.6304 4.68178 21.9743 4.02571L20.5601 5.43992C20.8415 5.72131 20.9997 6.10286 21 6.5008L23 6.4992ZM21.9743 4.02571C21.3182 3.36964 20.4286 3.00074 19.5008 3L19.4992 5C19.8971 5.00032 20.2787 5.15854 20.5601 5.43992L21.9743 4.02571ZM20 19.5C20 19.6326 19.9473 19.7598 19.8536 19.8536L21.2678 21.2678C21.7366 20.7989 22 20.163 22 19.5H20ZM19.8536 19.8536C19.7598 19.9473 19.6326 20 19.5 20V22C20.163 22 20.7989 21.7366 21.2678 21.2678L19.8536 19.8536ZM19.5 20H4.5V22H19.5V20ZM4.5 20C4.36739 20 4.24022 19.9473 4.14645 19.8536L2.73223 21.2678C3.20107 21.7366 3.83696 22 4.5 22V20ZM4.14645 19.8536C4.05268 19.7598 4 19.6326 4 19.5H2C2 20.163 2.26339 20.7989 2.73223 21.2678L4.14645 19.8536ZM4 19.5V11H2V19.5H4ZM3 12H21V10H3V12ZM20 11V19.5H22V11H20ZM21 9H3V11H21V9ZM4 10V6.5H2V10H4ZM4 6.5C4 6.22342 4.22315 6 4.5 6V4C3.11685 4 2 5.12058 2 6.5H4ZM4.5 6H7.5V4H4.5V6ZM6.5 5V6.5H8.5V5H6.5ZM6.5 6.5C6.5 6.89783 6.65804 7.27936 6.93934 7.56066L8.35355 6.14645C8.44732 6.24021 8.5 6.36739 8.5 6.5H6.5ZM6.93934 7.56066C7.22064 7.84196 7.60217 8 8 8V6C8.13261 6 8.25979 6.05268 8.35355 6.14645L6.93934 7.56066ZM8 8C8.39782 8 8.77936 7.84196 9.06066 7.56066L7.64645 6.14645C7.74022 6.05268 7.86739 6 8 6V8ZM9.06066 7.56066C9.34197 7.27935 9.5 6.89782 9.5 6.5H7.5C7.5 6.36739 7.55268 6.24022 7.64645 6.14645L9.06066 7.56066ZM9.5 6.5V5H7.5V6.5H9.5ZM8.5 6H15.5V4H8.5V6ZM14.5 5V6.5H16.5V5H14.5ZM14.5 6.5C14.5 6.89782 14.658 7.27935 14.9393 7.56066L16.3536 6.14645C16.4473 6.24022 16.5 6.36739 16.5 6.5H14.5ZM14.9393 7.56066C15.2206 7.84196 15.6022 8 16 8V6C16.1326 6 16.2598 6.05268 16.3536 6.14645L14.9393 7.56066ZM16 8C16.3978 8 16.7794 7.84196 17.0607 7.56066L15.6464 6.14645C15.7402 6.05268 15.8674 6 16 6V8ZM17.0607 7.56066C17.342 7.27935 17.5 6.89782 17.5 6.5H15.5C15.5 6.36739 15.5527 6.24022 15.6464 6.14645L17.0607 7.56066ZM17.5 6.5V5H15.5V6.5H17.5ZM16.5 6H19.5V4H16.5V6ZM19.5 6C19.6326 6 19.7598 6.05268 19.8536 6.14645L21.2678 4.73223C20.7989 4.26339 20.163 4 19.5 4V6ZM19.8536 6.14645C19.9473 6.24022 20 6.36739 20 6.5H22C22 5.83696 21.7366 5.20107 21.2678 4.73223L19.8536 6.14645ZM20 6.5V10H22V6.5H20Z" fill="#656565" mask="url(#path-1-inside-1_2210_20152)"/>
</svg>
