<svg width="24" height="24" viewBox="0 0 24 24" fill="none" xmlns="http://www.w3.org/2000/svg">
<path fill-rule="evenodd" clip-rule="evenodd" d="M13 3C13 2.44772 12.5523 2 12 2C11.4477 2 11 2.44772 11 3V15.865L6.64018 12.2318C6.2159 11.8782 5.58534 11.9355 5.23177 12.3598C4.87821 12.7841 4.93553 13.4147 5.35981 13.7682L11.3598 18.7682C11.7307 19.0773 12.2693 19.0773 12.6402 18.7682L18.6402 13.7682C19.0645 13.4147 19.1218 12.7841 18.7682 12.3598C18.4147 11.9355 17.7841 11.8782 17.3598 12.2318L13 15.865V3ZM5 20C4.44772 20 4 20.4477 4 21C4 21.5523 4.44772 22 5 22H19C19.5523 22 20 21.5523 20 21C20 20.4477 19.5523 20 19 20H5Z" fill="#292929"/>
</svg>
