<svg width="24" height="25" viewBox="0 0 24 25" fill="none" xmlns="http://www.w3.org/2000/svg">
<path d="M8.44553 6.27827C8.93645 6.27827 9.33442 5.8803 9.33442 5.38938C9.33442 4.89846 8.93645 4.50049 8.44553 4.50049C7.95461 4.50049 7.55664 4.89846 7.55664 5.38938C7.55664 5.8803 7.95461 6.27827 8.44553 6.27827Z" stroke="black" stroke-width="1.5" stroke-linecap="round" stroke-linejoin="round"/>
<path d="M15.5569 6.27827C16.0478 6.27827 16.4457 5.8803 16.4457 5.38938C16.4457 4.89846 16.0478 4.50049 15.5569 4.50049C15.0659 4.50049 14.668 4.89846 14.668 5.38938C14.668 5.8803 15.0659 6.27827 15.5569 6.27827Z" stroke="black" stroke-width="1.5" stroke-linecap="round" stroke-linejoin="round"/>
<path d="M8.44553 13.3902C8.93645 13.3902 9.33442 12.9922 9.33442 12.5013C9.33442 12.0104 8.93645 11.6124 8.44553 11.6124C7.95461 11.6124 7.55664 12.0104 7.55664 12.5013C7.55664 12.9922 7.95461 13.3902 8.44553 13.3902Z" stroke="black" stroke-width="1.5" stroke-linecap="round" stroke-linejoin="round"/>
<path d="M15.5569 13.3902C16.0478 13.3902 16.4457 12.9922 16.4457 12.5013C16.4457 12.0104 16.0478 11.6124 15.5569 11.6124C15.0659 11.6124 14.668 12.0104 14.668 12.5013C14.668 12.9922 15.0659 13.3902 15.5569 13.3902Z" stroke="black" stroke-width="1.5" stroke-linecap="round" stroke-linejoin="round"/>
<path d="M8.44553 20.4996C8.93645 20.4996 9.33442 20.1016 9.33442 19.6107C9.33442 19.1198 8.93645 18.7218 8.44553 18.7218C7.95461 18.7218 7.55664 19.1198 7.55664 19.6107C7.55664 20.1016 7.95461 20.4996 8.44553 20.4996Z" stroke="black" stroke-width="1.5" stroke-linecap="round" stroke-linejoin="round"/>
<path d="M15.5569 20.4996C16.0478 20.4996 16.4457 20.1016 16.4457 19.6107C16.4457 19.1198 16.0478 18.7218 15.5569 18.7218C15.0659 18.7218 14.668 19.1198 14.668 19.6107C14.668 20.1016 15.0659 20.4996 15.5569 20.4996Z" stroke="black" stroke-width="1.5" stroke-linecap="round" stroke-linejoin="round"/>
</svg>
