<svg width="16" height="16" viewBox="0 0 16 16" fill="none" xmlns="http://www.w3.org/2000/svg">
<path d="M13.5088 3.00279H2.50879C2.23265 3.00279 2.00879 3.22665 2.00879 3.50279V12.5028C2.00879 12.7789 2.23265 13.0028 2.50879 13.0028H13.5088C13.7849 13.0028 14.0088 12.7789 14.0088 12.5028V3.50279C14.0088 3.22665 13.7849 3.00279 13.5088 3.00279Z" stroke="#292929" stroke-linecap="round" stroke-linejoin="round"/>
<path d="M2.00879 10.5028L5.15254 7.35905C5.19906 7.31181 5.25452 7.27429 5.31568 7.24868C5.37684 7.22307 5.44248 7.20988 5.50879 7.20988C5.57509 7.20988 5.64074 7.22307 5.7019 7.24868C5.76306 7.27429 5.81851 7.31181 5.86504 7.35905L8.65254 10.1465C8.69906 10.1938 8.75452 10.2313 8.81568 10.2569C8.87684 10.2825 8.94248 10.2957 9.00879 10.2957C9.07509 10.2957 9.14074 10.2825 9.2019 10.2569C9.26306 10.2313 9.31851 10.1938 9.36504 10.1465L10.6525 8.85905C10.6991 8.81181 10.7545 8.77429 10.8157 8.74868C10.8768 8.72307 10.9425 8.70988 11.0088 8.70988C11.0751 8.70988 11.1407 8.72307 11.2019 8.74868C11.2631 8.77429 11.3185 8.81181 11.365 8.85905L14.0088 11.5028" stroke="#191C1F" stroke-linecap="round" stroke-linejoin="round"/>
<path d="M9.75879 7.00279C10.173 7.00279 10.5088 6.66701 10.5088 6.25279C10.5088 5.83858 10.173 5.50279 9.75879 5.50279C9.34458 5.50279 9.00879 5.83858 9.00879 6.25279C9.00879 6.66701 9.34458 7.00279 9.75879 7.00279Z" fill="#191C1F"/>
</svg>
