<svg width="32" height="32" viewBox="0 0 32 32" fill="none" xmlns="http://www.w3.org/2000/svg">
<path d="M24.3207 3.51978H7.68054C7.29691 3.53031 6.92115 3.63098 6.58363 3.81363C6.24611 3.99629 5.95631 4.25581 5.73767 4.57121L1.57764 10.3313C1.26873 10.7678 1.11447 11.295 1.13931 11.8291C1.16416 12.3633 1.36669 12.8739 1.71478 13.2799L14.1949 27.6571C14.4085 27.9324 14.6823 28.1552 14.9953 28.3085C15.3083 28.4618 15.6521 28.5414 16.0006 28.5414C16.3491 28.5414 16.693 28.4618 17.0059 28.3085C17.3189 28.1552 17.5927 27.9324 17.8063 27.6571L30.2864 13.2799C30.6345 12.8739 30.8371 12.3633 30.8619 11.8291C30.8867 11.295 30.7325 10.7678 30.4236 10.3313L26.2635 4.57121C26.0449 4.25581 25.7551 3.99629 25.4176 3.81363C25.0801 3.63098 24.7043 3.53031 24.3207 3.51978Z" stroke="#292929" stroke-width="1.5" stroke-linecap="round" stroke-linejoin="round"/>
<path d="M14.8114 3.49707L9.23425 12.1371L16 28.4801L22.8115 12.1371L17.2572 3.49707M1.18848 12.1371H30.8116" stroke="#292929" stroke-width="1.5" stroke-linecap="round" stroke-linejoin="round"/>
</svg>
