<svg width="25" height="25" viewBox="0 0 25 25" fill="none" xmlns="http://www.w3.org/2000/svg">
<path fill-rule="evenodd" clip-rule="evenodd" d="M24.02 12.9697C24.02 12.1188 23.9436 11.3006 23.8018 10.5151H12.5V15.157H18.9582C18.68 16.657 17.8345 17.9279 16.5636 18.7788V21.7897H20.4418C22.7109 19.7006 24.02 16.6242 24.02 12.9697Z" fill="#4285F4"/>
<path fill-rule="evenodd" clip-rule="evenodd" d="M12.501 24.7C15.741 24.7 18.4573 23.6254 20.4428 21.7927L16.5646 18.7818C15.4901 19.5018 14.1155 19.9273 12.501 19.9273C9.37553 19.9273 6.73007 17.8163 5.78643 14.98H1.77734V18.0891C3.75189 22.0109 7.81007 24.7 12.501 24.7Z" fill="#34A853"/>
<path fill-rule="evenodd" clip-rule="evenodd" d="M5.78545 14.9772C5.54545 14.2572 5.40909 13.4881 5.40909 12.6972C5.40909 11.9063 5.54545 11.1372 5.78545 10.4172V7.30811H1.77636C0.963636 8.92811 0.5 10.7608 0.5 12.6972C0.5 14.6336 0.963636 16.4663 1.77636 18.0863L5.78545 14.9772Z" fill="#FBBC05"/>
<path fill-rule="evenodd" clip-rule="evenodd" d="M12.501 5.47146C14.2628 5.47146 15.8446 6.07691 17.0883 7.266L20.5301 3.82419C18.4519 1.88782 15.7355 0.69873 12.501 0.69873C7.81007 0.69873 3.75189 3.38782 1.77734 7.30964L5.78643 10.4187C6.73007 7.58237 9.37553 5.47146 12.501 5.47146Z" fill="#EA4335"/>
</svg>
