<svg width="33" height="32" viewBox="0 0 33 32" fill="none" xmlns="http://www.w3.org/2000/svg">
<path d="M11.3357 29.3333H22.0024C27.3624 29.3333 28.3224 27.1867 28.6024 24.5733L29.6024 13.9067C29.9624 10.6533 29.029 8 23.3357 8H10.0024C4.30904 8 3.37571 10.6533 3.73571 13.9067L4.73571 24.5733C5.01571 27.1867 5.97571 29.3333 11.3357 29.3333Z" stroke="#212121" stroke-width="1.5" stroke-miterlimit="10" stroke-linecap="round" stroke-linejoin="round"/>
<path d="M11.3359 8.00008V6.93341C11.3359 4.57341 11.3359 2.66675 15.6026 2.66675H17.7359C22.0026 2.66675 22.0026 4.57341 22.0026 6.93341V8.00008" stroke="#212121" stroke-width="1.5" stroke-miterlimit="10" stroke-linecap="round" stroke-linejoin="round"/>
<path d="M19.3333 17.3333V18.6667C19.3333 18.68 19.3333 18.68 19.3333 18.6933C19.3333 20.1467 19.32 21.3333 16.6667 21.3333C14.0267 21.3333 14 20.16 14 18.7067V17.3333C14 16 14 16 15.3333 16H18C19.3333 16 19.3333 16 19.3333 17.3333Z" stroke="#212121" stroke-width="1.5" stroke-miterlimit="10" stroke-linecap="round" stroke-linejoin="round"/>
<path d="M29.5359 14.6667C26.4559 16.9067 22.9359 18.2401 19.3359 18.6934" stroke="#212121" stroke-width="1.5" stroke-miterlimit="10" stroke-linecap="round" stroke-linejoin="round"/>
<path d="M4.16016 15.0266C7.16016 17.0799 10.5468 18.3199 14.0002 18.7066" stroke="#212121" stroke-width="1.5" stroke-miterlimit="10" stroke-linecap="round" stroke-linejoin="round"/>
</svg>
