<svg width="25" height="24" viewBox="0 0 25 24" fill="none" xmlns="http://www.w3.org/2000/svg">
<path d="M8.09278 22H16.0928C20.1128 22 20.8328 20.39 21.0428 18.43L21.7928 10.43C22.0628 7.99 21.3628 6 17.0928 6H7.09278C2.82278 6 2.12278 7.99 2.39278 10.43L3.14278 18.43C3.35278 20.39 4.07278 22 8.09278 22Z" stroke="#989898" stroke-width="1.5" stroke-miterlimit="10" stroke-linecap="round" stroke-linejoin="round"/>
<path d="M8.09277 6V5.2C8.09277 3.43 8.09277 2 11.2928 2H12.8928C16.0928 2 16.0928 3.43 16.0928 5.2V6" stroke="#989898" stroke-width="1.5" stroke-miterlimit="10" stroke-linecap="round" stroke-linejoin="round"/>
<path d="M14.0928 13V14C14.0928 14.01 14.0928 14.01 14.0928 14.02C14.0928 15.11 14.0828 16 12.0928 16C10.1128 16 10.0928 15.12 10.0928 14.03V13C10.0928 12 10.0928 12 11.0928 12H13.0928C14.0928 12 14.0928 12 14.0928 13Z" stroke="#989898" stroke-width="1.5" stroke-miterlimit="10" stroke-linecap="round" stroke-linejoin="round"/>
<path d="M21.7428 11C19.4328 12.68 16.7928 13.68 14.0928 14.02" stroke="#989898" stroke-width="1.5" stroke-miterlimit="10" stroke-linecap="round" stroke-linejoin="round"/>
<path d="M2.71277 11.2695C4.96277 12.8095 7.50277 13.7395 10.0928 14.0295" stroke="#989898" stroke-width="1.5" stroke-miterlimit="10" stroke-linecap="round" stroke-linejoin="round"/>
</svg>
