<svg width="24" height="25" viewBox="0 0 24 25" fill="none" xmlns="http://www.w3.org/2000/svg">
<path d="M8.7375 12.2112C8.41238 11.4136 8.24676 10.56 8.25 9.69873C8.25 8.36371 8.64588 7.05867 9.38758 5.94863C10.1293 4.8386 11.1835 3.97344 12.4169 3.46255C13.6503 2.95166 15.0075 2.81798 16.3169 3.07843C17.6262 3.33888 18.829 3.98176 19.773 4.92576C20.717 5.86977 21.3599 7.0725 21.6203 8.38187C21.8808 9.69125 21.7471 11.0484 21.2362 12.2818C20.7253 13.5152 19.8601 14.5695 18.7501 15.3112C17.6401 16.0529 16.335 16.4487 15 16.4487C14.1387 16.452 13.2851 16.2864 12.4875 15.9612V15.9612L11.25 17.1987H9V19.4487H6.75V21.6987H3V17.9487L8.7375 12.2112Z" stroke="#656565" stroke-width="1.5" stroke-linecap="round" stroke-linejoin="round"/>
<path d="M17.25 7.82373C17.25 8.03084 17.0821 8.19873 16.875 8.19873C16.6679 8.19873 16.5 8.03084 16.5 7.82373C16.5 7.61662 16.6679 7.44873 16.875 7.44873C17.0821 7.44873 17.25 7.61662 17.25 7.82373Z" fill="#656565" stroke="#656565" stroke-width="1.5"/>
</svg>
