<svg width="24" height="24" viewBox="0 0 24 24" fill="none" xmlns="http://www.w3.org/2000/svg">
<path d="M8.82178 15.1781L15.178 8.8125" stroke="#FEFEFE" stroke-width="1.5" stroke-linecap="round" stroke-linejoin="round"/>
<path d="M13.594 16.7719L10.9408 19.425C10.5229 19.843 10.0266 20.1745 9.48054 20.4007C8.93443 20.6269 8.34912 20.7434 7.75801 20.7434C6.56423 20.7434 5.41933 20.2691 4.5752 19.425C3.73107 18.5809 3.25684 17.436 3.25684 16.2422C3.25684 15.0484 3.73107 13.9035 4.5752 13.0594L7.22832 10.4062" stroke="#FEFEFE" stroke-width="1.5" stroke-linecap="round" stroke-linejoin="round"/>
<path d="M16.7719 13.5938L19.425 10.9406C20.2691 10.0965 20.7434 8.95162 20.7434 7.75783C20.7434 6.56404 20.2691 5.41915 19.425 4.57502C18.5809 3.73088 17.436 3.25665 16.2422 3.25665C15.0484 3.25665 13.9035 3.73088 13.0594 4.57502L10.4062 7.22814" stroke="#FEFEFE" stroke-width="1.5" stroke-linecap="round" stroke-linejoin="round"/>
</svg>
