<svg width="37" height="17" viewBox="0 0 37 17" fill="none" xmlns="http://www.w3.org/2000/svg">
<path d="M0 5.89877L0 4.1319L0 5.89877ZM9.75511 0.5C8.76475 0.5 8.26956 1.08896 8.26956 1.82515C8.26956 2.56135 8.76475 3.15031 9.75511 3.15031C10.696 3.15031 11.2407 2.61043 11.2407 1.82515C11.2407 1.08896 10.696 0.5 9.75511 0.5ZM20.6987 16.2055V8.69632C20.6987 6.88037 20.0549 5.94785 18.3218 5.94785C16.4896 5.94785 15.3012 7.32209 15.3012 9.4816V16.2055H12.7757V4.1319H15.1526V6.24233C15.8459 4.8681 17.0343 3.93558 19.0646 3.93558C21.8376 3.93558 23.1746 5.3589 23.1746 8.2546V16.2055H20.6987ZM24.5116 10.1687C24.5116 6.34049 26.6904 3.93558 30.5528 3.93558C34.4152 3.93558 36.5941 6.38957 36.5941 10.2178C36.5941 14.046 34.4648 16.5 30.5528 16.5C26.6904 16.4509 24.5116 13.9969 24.5116 10.1687ZM34.0686 10.1687C34.0686 7.27301 32.7811 5.80061 30.5528 5.80061C28.3245 5.80061 27.037 7.27301 27.037 10.1687C27.037 13.1135 28.3245 14.5368 30.5528 14.5368C32.7811 14.5368 34.0686 13.1135 34.0686 10.1687ZM11.0426 15.2239C11.0426 15.5184 11.0426 15.9601 11.0426 16.2055H8.56667V14.7331C8.56667 14.1933 8.56667 13.6043 8.56667 13.0153C8.51715 11.5429 8.31908 10.0215 7.22968 8.64724L7.18016 8.59816C6.4869 7.71472 5.54605 7.07669 4.55569 6.68405V13.2117C4.55569 14.2423 4.95183 14.5859 6.04124 14.5859H7.32872V16.2055C6.83353 16.2546 5.9422 16.3037 5.44702 16.3037C2.92158 16.3037 1.98073 15.5675 1.98073 13.1135L1.98073 6.19325H0L0 3.83742H1.98073V0.5L4.45665 0.5V4.18098C5.44702 4.47546 6.43738 4.91718 7.2792 5.50613C7.72486 5.84969 8.12101 6.19325 8.51716 6.58589C8.66571 6.73313 8.81427 6.92945 8.96282 7.07669L9.01234 7.17485C10.5474 9.13804 10.9436 11.4448 10.9931 13.408C11.0426 14.0951 11.0426 14.684 11.0426 15.2239ZM11.0426 4.1319V10.0706C10.696 8.84356 10.1513 7.7638 9.40849 6.88037L9.35897 6.83129C9.21041 6.63497 9.06186 6.43865 8.9133 6.29141C8.81427 6.14417 8.66571 6.04601 8.56667 5.89877V4.1319H11.0426Z" fill="#292929"/>
</svg>
