<svg width="80" height="35" viewBox="0 0 80 35" fill="none" xmlns="http://www.w3.org/2000/svg">
<path d="M0 11.7082L0 7.87641L0 11.7082ZM21.3261 0C19.161 0 18.0785 1.27726 18.0785 2.87383C18.0785 4.4704 19.161 5.74765 21.3261 5.74765C23.383 5.74765 24.5737 4.57684 24.5737 2.87383C24.5737 1.27726 23.383 0 21.3261 0ZM45.2503 34.0602V17.7752C45.2503 13.8369 43.843 11.8146 40.0541 11.8146C36.0487 11.8146 33.4506 14.7949 33.4506 19.4782V34.0602H27.9296V7.87641L33.1258 7.87641V12.4532C34.6414 9.47298 37.2395 7.45066 41.6779 7.45066C47.7402 7.45066 50.6631 10.5374 50.6631 16.8172V34.0602H45.2503ZM53.5859 20.9683C53.5859 12.6661 58.3491 7.45066 66.793 7.45066C75.2368 7.45066 80 12.7726 80 21.0747C80 29.3769 75.3451 34.6988 66.793 34.6988C58.3491 34.5924 53.5859 29.2705 53.5859 20.9683ZM74.479 20.9683C74.479 14.6884 71.6644 11.4953 66.793 11.4953C61.9215 11.4953 59.1069 14.6884 59.1069 20.9683C59.1069 27.3546 61.9215 30.4413 66.793 30.4413C71.6644 30.4413 74.479 27.3546 74.479 20.9683ZM24.1407 31.9314C24.1407 32.57 24.1407 33.528 24.1407 34.0602H18.728V30.867C18.728 29.6962 18.728 28.419 18.728 27.1417C18.6198 23.9486 18.1867 20.649 15.8051 17.6687L15.6969 17.5623C14.1813 15.6464 12.1245 14.2627 9.9594 13.4112V27.5674C9.9594 29.8026 10.8254 30.5477 13.207 30.5477H16.0217V34.0602C14.9391 34.1666 12.9905 34.273 11.908 34.273C6.38701 34.273 4.33018 32.6765 4.33018 27.3546V12.3468H0L0 7.23779H4.33018V0L9.7429 0V7.98285C11.908 8.62148 14.0731 9.57942 15.9134 10.8567C16.8877 11.6017 17.7537 12.3468 18.6198 13.1983C18.9445 13.5176 19.2693 13.9434 19.594 14.2627L19.7023 14.4756C23.0582 18.7331 23.9242 23.7357 24.0325 27.9932C24.1407 29.4833 24.1407 30.7606 24.1407 31.9314ZM24.1407 7.87641V20.7554C23.383 18.0945 22.1922 15.7528 20.5683 13.8369L20.4601 13.7305C20.1353 13.3048 19.8106 12.879 19.4858 12.5597C19.2693 12.2404 18.9445 12.0275 18.728 11.7082V7.87641H24.1407Z" fill="#292929"/>
</svg>
