<svg width="58" height="26" viewBox="0 0 58 26" fill="none" xmlns="http://www.w3.org/2000/svg">
<path d="M0 8.89494L0 6.1066L0 8.89494ZM15.3948 0.375C13.8319 0.375 13.0504 1.30445 13.0504 2.46626C13.0504 3.62807 13.8319 4.55752 15.3948 4.55752C16.8796 4.55752 17.7392 3.70552 17.7392 2.46626C17.7392 1.30445 16.8796 0.375 15.3948 0.375ZM32.6651 25.1603V13.3098C32.6651 10.444 31.6492 8.97239 28.9141 8.97239C26.0227 8.97239 24.1472 11.1411 24.1472 14.5491V25.1603H20.1617V6.1066H23.9127V9.43712C25.0068 7.2684 26.8823 5.79678 30.0863 5.79678C34.4624 5.79678 36.5724 8.04294 36.5724 12.6127V25.1603H32.6651ZM38.6823 15.6334C38.6823 9.59202 42.1208 5.79678 48.2162 5.79678C54.3116 5.79678 57.75 9.66948 57.75 15.7109C57.75 21.7523 54.3897 25.625 48.2162 25.625C42.1208 25.5475 38.6823 21.6748 38.6823 15.6334ZM53.7645 15.6334C53.7645 11.0637 51.7327 8.74003 48.2162 8.74003C44.6996 8.74003 42.6678 11.0637 42.6678 15.6334C42.6678 20.2807 44.6996 22.5268 48.2162 22.5268C51.7327 22.5268 53.7645 20.2807 53.7645 15.6334ZM17.4266 23.6112C17.4266 24.0759 17.4266 24.773 17.4266 25.1603H13.5193V22.8367C13.5193 21.9847 13.5193 21.0552 13.5193 20.1258C13.4411 17.8021 13.1286 15.4011 11.4093 13.2324L11.3312 13.1549C10.2371 11.7607 8.75237 10.7538 7.18945 10.1342V20.4356C7.18945 22.0621 7.81461 22.6043 9.53383 22.6043H11.5656V25.1603C10.7842 25.2377 9.37754 25.3152 8.59608 25.3152C4.61062 25.3152 3.12585 24.1534 3.12585 20.2807L3.12585 9.35966H0L0 5.64187H3.12585V0.375L7.03315 0.375V6.18405C8.59608 6.64877 10.159 7.34586 11.4875 8.27531C12.1908 8.81748 12.816 9.35966 13.4411 9.97929C13.6756 10.2117 13.91 10.5215 14.1445 10.7538L14.2226 10.9087C16.6451 14.0069 17.2703 17.6472 17.3484 20.7454C17.4266 21.8298 17.4266 22.7592 17.4266 23.6112ZM17.4266 6.1066V15.4785C16.8796 13.5422 16.02 11.8382 14.8478 10.444L14.7696 10.3666C14.5352 10.0567 14.3007 9.74693 14.0663 9.51457C13.91 9.28221 13.6756 9.1273 13.5193 8.89494V6.1066H17.4266Z" fill="#00F58F"/>
</svg>
