<svg width="24" height="24" viewBox="0 0 24 24" fill="none" xmlns="http://www.w3.org/2000/svg">
<path d="M11.692 3.68689C11.7852 3.63105 11.8918 3.60156 12.0004 3.60156C12.109 3.60156 12.2156 3.63105 12.3088 3.68689L20.4352 8.56249C20.7907 8.77583 21.085 9.07764 21.2892 9.43853C21.4934 9.79941 21.6006 10.207 21.6004 10.6217V17.4017C21.6004 18.1973 21.2843 18.9604 20.7217 19.523C20.1591 20.0856 19.396 20.4017 18.6004 20.4017H5.40039C4.60474 20.4017 3.84168 20.0856 3.27907 19.523C2.71646 18.9604 2.40039 18.1973 2.40039 17.4017V10.6217C2.40018 10.207 2.5074 9.79941 2.71161 9.43853C2.91581 9.07764 3.21003 8.77583 3.56559 8.56249L3.82119 8.98849L3.56559 8.56249L11.692 3.68689ZM12.0004 4.90129L4.18359 9.59209L4.16679 9.60169L12.0004 14.3021L19.834 9.60169L19.8184 9.59209L12.0004 4.90129ZM20.4004 10.6613L12.3088 15.5165C12.2156 15.5723 12.109 15.6018 12.0004 15.6018C11.8918 15.6018 11.7852 15.5723 11.692 15.5165L3.60039 10.6613V17.4017C3.60039 17.8791 3.79003 18.3369 4.1276 18.6745C4.46516 19.012 4.923 19.2017 5.40039 19.2017H18.6004C19.0778 19.2017 19.5356 19.012 19.8732 18.6745C20.2107 18.3369 20.4004 17.8791 20.4004 17.4017V10.6613Z" fill="black"/>
</svg>
