<svg width="4" height="17" viewBox="0 0 4 17" fill="none" xmlns="http://www.w3.org/2000/svg">
<path d="M2 13.2245C2.82843 13.2245 3.5 13.8961 3.5 14.7245C3.5 15.5529 2.82843 16.2245 2 16.2245C1.17157 16.2245 0.5 15.5529 0.5 14.7245C0.5 13.8961 1.17157 13.2245 2 13.2245Z" fill="black"/>
<path d="M2 6.72449C2.82843 6.72449 3.5 7.39606 3.5 8.22449C3.5 9.05291 2.82843 9.72449 2 9.72449C1.17157 9.72449 0.5 9.05291 0.5 8.22449C0.5 7.39606 1.17157 6.72449 2 6.72449Z" fill="black"/>
<path d="M3.5 1.72449C3.5 0.896061 2.82843 0.224487 2 0.224487C1.17157 0.224487 0.5 0.896061 0.5 1.72449C0.5 2.55291 1.17157 3.22449 2 3.22449C2.82843 3.22449 3.5 2.55291 3.5 1.72449Z" fill="black"/>
</svg>
