<svg width="10" height="12" viewBox="0 0 10 12" fill="none" xmlns="http://www.w3.org/2000/svg">
<path d="M1.41304 12V7.68067H0V6.60504H1.41304V5.22689H0V4.15126H1.41304V0H3.2971L5.01812 4.15126H7.1558V0H8.58696V4.15126H10V5.22689H8.58696V6.60504H10V7.68067H8.58696V12H6.68478L4.96377 7.68067H2.82609V12H1.41304ZM2.82609 6.60504H4.52899L3.98551 5.22689H2.78985L2.82609 6.60504ZM7.1558 9.63025H7.22826L7.17391 7.68067H6.41304L7.1558 9.63025ZM2.78985 4.15126H3.55072L2.78985 2.06723H2.71739L2.78985 4.15126ZM5.97826 6.60504H7.19203L7.1558 5.22689H5.43478L5.97826 6.60504Z" fill="black"/>
</svg>
