<svg width="24" height="24" viewBox="0 0 24 24" fill="none" xmlns="http://www.w3.org/2000/svg">
<path d="M8.41304 18V13.6807H7V12.605H8.41304V11.2269H7V10.1513H8.41304V6H10.2971L12.0181 10.1513H14.1558V6H15.587V10.1513H17V11.2269H15.587V12.605H17V13.6807H15.587V18H13.6848L11.9638 13.6807H9.82609V18H8.41304ZM9.82609 12.605H11.529L10.9855 11.2269H9.78985L9.82609 12.605ZM14.1558 15.6303H14.2283L14.1739 13.6807H13.413L14.1558 15.6303ZM9.78985 10.1513H10.5507L9.78985 8.06723H9.71739L9.78985 10.1513ZM12.9783 12.605H14.192L14.1558 11.2269H12.4348L12.9783 12.605Z" fill="#656565"/>
</svg>
