<svg width="263" height="236" viewBox="0 0 263 236" fill="none" xmlns="http://www.w3.org/2000/svg">
<circle cx="41.5706" cy="64.2857" r="5.89286" fill="#EDFFF7"/>
<circle cx="196.66" cy="25.9821" r="10.9821" fill="#EDFFF7"/>
<circle cx="43.4464" cy="188.304" r="10.4464" fill="#EDFFF7"/>
<circle cx="230.411" cy="178.125" r="10.4464" fill="#EDFFF7"/>
<circle cx="210.054" cy="189.911" r="5.08929" fill="#EDFFF7"/>
<path d="M235.317 145.891L236.958 153.642L244.597 155.306L236.958 156.97L235.317 164.721L233.677 156.97L226.037 155.306L233.677 153.642L235.317 145.891Z" fill="#FEFEFE"/>
<path d="M225.506 66.7617C225.626 66.1953 226.434 66.1953 226.554 66.7617L227.599 71.6972C227.643 71.9034 227.803 72.0649 228.009 72.1097L232.908 73.1769C233.47 73.2994 233.47 74.1013 232.908 74.2238L228.009 75.2909C227.803 75.3358 227.643 75.4972 227.599 75.7034L226.554 80.639C226.434 81.2053 225.626 81.2053 225.506 80.639L224.461 75.7034C224.418 75.4972 224.257 75.3358 224.051 75.2909L219.153 74.2238C218.591 74.1013 218.591 73.2994 219.153 73.1769L224.051 72.1097C224.257 72.0649 224.418 71.9034 224.461 71.6972L225.506 66.7617Z" fill="#AEFFDD"/>
<path d="M30.9766 131.583C31.0964 131.017 31.9049 131.017 32.0248 131.583L33.8155 140.044C33.8592 140.25 34.0197 140.411 34.2256 140.456L42.5986 142.28C43.1608 142.403 43.1608 143.204 42.5986 143.327L34.2256 145.151C34.0197 145.196 33.8592 145.357 33.8155 145.563L32.0248 154.024C31.9049 154.59 31.0964 154.59 30.9766 154.024L29.1858 145.563C29.1421 145.357 28.9816 145.196 28.7757 145.151L20.4027 143.327C19.8405 143.204 19.8405 142.403 20.4027 142.28L28.7757 140.456C28.9816 140.411 29.1421 140.25 29.1858 140.044L30.9766 131.583Z" fill="#AEFFDD"/>
<path d="M64.3528 41.5377C64.0423 41.4716 64.0423 41.0284 64.3528 40.9623L69.0487 39.9637C69.1619 39.9397 69.2505 39.8515 69.275 39.7384L70.2861 35.0756C70.3531 34.7665 70.794 34.7665 70.861 35.0756L71.8721 39.7384C71.8966 39.8515 71.9851 39.9397 72.0983 39.9637L76.7942 40.9623C77.1048 41.0284 77.1048 41.4716 76.7942 41.5377L72.0983 42.5363C71.9851 42.5603 71.8966 42.6485 71.8721 42.7616L70.861 47.4244C70.794 47.7335 70.3531 47.7335 70.2861 47.4244L69.275 42.7616C69.2505 42.6485 69.1619 42.5603 69.0487 42.5363L64.3528 41.5377Z" fill="#AEFFDD"/>
<circle cx="149.253" cy="93.2139" r="59.4643" fill="#D5FFEE" stroke="#AEFFDD" stroke-width="2.14286"/>
<circle cx="149.252" cy="93.2139" r="49.8214" fill="#FEFEFE" stroke="#AEFFDD" stroke-width="2.14286"/>
<path d="M71.7031 203.371L103.842 158.734L105.27 157.662L108.484 156.948H113.126L115.626 158.734L118.126 159.805L120.268 162.305L122.054 166.233L94.2003 218.726L90.9864 220.512H87.0583L81.7019 218.726L77.4167 216.941L73.4886 211.584L71.7031 209.442V203.371Z" fill="#D5FFEE"/>
<path d="M128.126 149.092L119.979 162.305" stroke="#AEFFDD" stroke-width="2.14286"/>
<path d="M118.55 144.807L110.693 156.591" stroke="#AEFFDD" stroke-width="2.14286"/>
<path d="M105.984 156.948L71.3457 204.442" stroke="#AEFFDD" stroke-width="2.14286"/>
<path d="M121.697 165.518L93.8437 219.44" stroke="#AEFFDD" stroke-width="2.14286"/>
<path d="M105.271 157.662L105.859 157.335C107.145 156.619 108.623 156.323 110.086 156.489V156.489C110.683 156.557 111.269 156.7 111.83 156.917L112.836 157.305L113.175 157.418C115.066 158.048 116.784 159.11 118.193 160.519V160.519L119.3 161.627C119.75 162.077 120.144 162.581 120.471 163.127V163.127C120.855 163.766 121.144 164.456 121.332 165.177L121.698 166.59" stroke="#AEFFDD" stroke-width="2.14286"/>
<path d="M94.558 218.726L93.0371 219.41C91.5638 220.073 89.9747 220.44 88.36 220.491V220.491C87.1059 220.53 85.8532 220.378 84.645 220.04L83.6205 219.753L83.277 219.637C80.2411 218.607 77.4764 216.906 75.1882 214.66V214.66L73.8653 213.362C72.831 212.347 72.0559 211.099 71.6052 209.721V209.721C71.0446 208.008 71.009 206.167 71.5029 204.433L71.7038 203.728" stroke="#AEFFDD" stroke-width="2.14286"/>
</svg>
