<svg width="33" height="32" viewBox="0 0 33 32" fill="none" xmlns="http://www.w3.org/2000/svg">
<path d="M24.3295 9.54651C24.2495 9.53318 24.1562 9.53318 24.0762 9.54651C22.2362 9.47984 20.7695 7.97317 20.7695 6.10651C20.7695 4.19984 22.3029 2.6665 24.2095 2.6665C26.1162 2.6665 27.6495 4.21317 27.6495 6.10651C27.6362 7.97317 26.1695 9.47984 24.3295 9.54651Z" stroke="#212121" stroke-width="1.5" stroke-linecap="round" stroke-linejoin="round"/>
<path d="M22.9541 19.2531C24.7807 19.5598 26.7941 19.2398 28.2074 18.2931C30.0874 17.0398 30.0874 14.9865 28.2074 13.7331C26.7807 12.7865 24.7407 12.4665 22.9141 12.7865" stroke="#212121" stroke-width="1.5" stroke-linecap="round" stroke-linejoin="round"/>
<path d="M8.29266 9.54651C8.37266 9.53318 8.46599 9.53318 8.54599 9.54651C10.386 9.47984 11.8527 7.97317 11.8527 6.10651C11.8527 4.19984 10.3193 2.6665 8.41266 2.6665C6.50599 2.6665 4.97266 4.21317 4.97266 6.10651C4.98599 7.97317 6.45266 9.47984 8.29266 9.54651Z" stroke="#212121" stroke-width="1.5" stroke-linecap="round" stroke-linejoin="round"/>
<path d="M9.66724 19.2531C7.84057 19.5598 5.82724 19.2398 4.41391 18.2931C2.53391 17.0398 2.53391 14.9865 4.41391 13.7331C5.84057 12.7865 7.88057 12.4665 9.70724 12.7865" stroke="#212121" stroke-width="1.5" stroke-linecap="round" stroke-linejoin="round"/>
<path d="M16.3334 19.5067C16.2534 19.4934 16.1601 19.4934 16.0801 19.5067C14.2401 19.44 12.7734 17.9334 12.7734 16.0667C12.7734 14.16 14.3068 12.6267 16.2134 12.6267C18.1201 12.6267 19.6534 14.1734 19.6534 16.0667C19.6401 17.9334 18.1734 19.4534 16.3334 19.5067Z" stroke="#212121" stroke-width="1.5" stroke-linecap="round" stroke-linejoin="round"/>
<path d="M12.453 23.7067C10.573 24.9601 10.573 27.0134 12.453 28.2667C14.5863 29.6934 18.0796 29.6934 20.213 28.2667C22.093 27.0134 22.093 24.9601 20.213 23.7067C18.093 22.2934 14.5863 22.2934 12.453 23.7067Z" stroke="#212121" stroke-width="1.5" stroke-linecap="round" stroke-linejoin="round"/>
</svg>
