<svg width="25" height="24" viewBox="0 0 25 24" fill="none" xmlns="http://www.w3.org/2000/svg">
<path d="M3.43701 11.2197V15.7097C3.43701 20.1997 5.23701 21.9997 9.72701 21.9997H15.117C19.607 21.9997 21.407 20.1997 21.407 15.7097V11.2197" stroke="#989898" stroke-width="1.5" stroke-linecap="round" stroke-linejoin="round"/>
<path d="M12.427 12C14.257 12 15.607 10.51 15.427 8.68L14.767 2H10.097L9.42699 8.68C9.24699 10.51 10.597 12 12.427 12Z" stroke="#989898" stroke-width="1.5" stroke-linecap="round" stroke-linejoin="round"/>
<path d="M18.737 12C20.757 12 22.237 10.36 22.037 8.35L21.757 5.6C21.397 3 20.397 2 17.777 2H14.727L15.427 9.01C15.597 10.66 17.087 12 18.737 12Z" stroke="#989898" stroke-width="1.5" stroke-linecap="round" stroke-linejoin="round"/>
<path d="M6.06701 12C7.71701 12 9.20701 10.66 9.36701 9.01L9.58701 6.8L10.067 2H7.01701C4.39701 2 3.39701 3 3.03701 5.6L2.76701 8.35C2.56701 10.36 4.04701 12 6.06701 12Z" stroke="#989898" stroke-width="1.5" stroke-linecap="round" stroke-linejoin="round"/>
<path d="M12.427 17C10.757 17 9.927 17.83 9.927 19.5V22H14.927V19.5C14.927 17.83 14.097 17 12.427 17Z" stroke="#989898" stroke-width="1.5" stroke-linecap="round" stroke-linejoin="round"/>
</svg>
