<svg width="33" height="33" viewBox="0 0 33 33" fill="none" xmlns="http://www.w3.org/2000/svg">
<path d="M28.3473 15.4595V21.4461C28.3473 27.4328 25.9606 29.8328 19.9606 29.8328H12.774C12.0007 29.8328 11.294 29.7929 10.6406 29.6995" stroke="#292929" stroke-width="2" stroke-linecap="round" stroke-linejoin="round"/>
<path d="M4.38672 21.1929V15.4595" stroke="#292929" stroke-width="2" stroke-linecap="round" stroke-linejoin="round"/>
<path d="M16.3745 16.4998C18.8145 16.4998 20.6145 14.5132 20.3745 12.0732L19.4811 3.1665H13.2545L12.3612 12.0732C12.1212 14.5132 13.9345 16.4998 16.3745 16.4998Z" stroke="#292929" stroke-width="2" stroke-linecap="round" stroke-linejoin="round"/>
<path d="M24.7744 16.4998C27.4677 16.4998 29.4411 14.3131 29.1744 11.6331L28.801 7.96647C28.321 4.4998 26.9877 3.1665 23.4944 3.1665H19.4277L20.3611 12.5132C20.6011 14.7132 22.5744 16.4998 24.7744 16.4998Z" stroke="#292929" stroke-width="2" stroke-linecap="round" stroke-linejoin="round"/>
<path d="M7.89436 16.4998C10.0944 16.4998 12.081 14.7132 12.2943 12.5132L12.5877 9.56657L13.2277 3.1665H9.16104C5.66771 3.1665 4.3344 4.4998 3.8544 7.96647L3.48103 11.6331C3.21436 14.3131 5.20103 16.4998 7.89436 16.4998Z" stroke="#292929" stroke-width="2" stroke-linecap="round" stroke-linejoin="round"/>
<path d="M12.3346 25.8333C12.3346 26.8333 12.0546 27.7801 11.5613 28.5801C11.3079 29.0067 11.0013 29.3934 10.6413 29.7C10.6013 29.7534 10.5613 29.7933 10.508 29.8333C9.57464 30.6733 8.34797 31.1667 7.0013 31.1667C5.37464 31.1667 3.92126 30.4333 2.96126 29.2866C2.9346 29.2466 2.89467 29.22 2.868 29.18C2.708 28.9933 2.56132 28.7934 2.44132 28.5801C1.94799 27.7801 1.66797 26.8333 1.66797 25.8333C1.66797 24.1533 2.4413 22.6467 3.66797 21.6733C3.89464 21.4867 4.13461 21.3267 4.38794 21.1934C5.16127 20.7534 6.05464 20.5 7.0013 20.5C8.33464 20.5 9.5346 20.98 10.4679 21.7933C10.6279 21.9133 10.7746 22.06 10.908 22.2067C11.788 23.1667 12.3346 24.4333 12.3346 25.8333Z" stroke="#292929" stroke-width="2" stroke-miterlimit="10" stroke-linecap="round" stroke-linejoin="round"/>
<path d="M8.98698 25.8066H5.01367" stroke="#292929" stroke-width="2" stroke-miterlimit="10" stroke-linecap="round" stroke-linejoin="round"/>
<path d="M7 23.8599V27.8465" stroke="#292929" stroke-width="2" stroke-miterlimit="10" stroke-linecap="round" stroke-linejoin="round"/>
</svg>
