<svg width="25" height="24" viewBox="0 0 25 24" fill="none" xmlns="http://www.w3.org/2000/svg">
<path d="M15.1438 20.6063C14.2866 20.8667 13.3958 20.9994 12.5 21C10.72 21 8.97991 20.4722 7.49987 19.4832C6.01983 18.4943 4.86628 17.0887 4.18509 15.4442C3.5039 13.7996 3.32567 11.99 3.67294 10.2442C4.0202 8.49836 4.87737 6.89472 6.13604 5.63604C7.39472 4.37737 8.99836 3.5202 10.7442 3.17294C12.49 2.82567 14.2996 3.0039 15.9442 3.68509C17.5887 4.36628 18.9943 5.51983 19.9832 6.99987C20.9722 8.47991 21.5 10.22 21.5 12C21.4994 12.8958 21.3667 13.7866 21.1063 14.6438L15.1438 20.6063Z" stroke="#191C1F" stroke-width="1.5" stroke-linecap="round" stroke-linejoin="round"/>
<path d="M9.125 11.25C9.74632 11.25 10.25 10.7463 10.25 10.125C10.25 9.50368 9.74632 9 9.125 9C8.50368 9 8 9.50368 8 10.125C8 10.7463 8.50368 11.25 9.125 11.25Z" fill="#191C1F"/>
<path d="M15.875 11.25C16.4963 11.25 17 10.7463 17 10.125C17 9.50368 16.4963 9 15.875 9C15.2537 9 14.75 9.50368 14.75 10.125C14.75 10.7463 15.2537 11.25 15.875 11.25Z" fill="#191C1F"/>
<path d="M16.4001 14.25C16.0036 14.9331 15.4347 15.5 14.7503 15.8941C14.0658 16.2882 13.2899 16.4956 12.5001 16.4956C11.7103 16.4956 10.9344 16.2882 10.2499 15.8941C9.5655 15.5 8.99658 14.9331 8.6001 14.25" stroke="#191C1F" stroke-width="1.5" stroke-linecap="round" stroke-linejoin="round"/>
</svg>
