<svg width="96" height="96" viewBox="0 0 96 96" fill="none" xmlns="http://www.w3.org/2000/svg">
<rect width="96" height="96" rx="16" fill="#FAFAFA"/>
<path d="M50.0069 56.906L46.4069 66.6747C46.3004 66.9618 46.1085 67.2093 45.8571 67.3842C45.6058 67.559 45.3069 67.6527 45.0007 67.6527C44.6945 67.6527 44.3956 67.559 44.1442 67.3842C43.8928 67.2093 43.701 66.9618 43.5944 66.6747L39.9944 56.906C39.9185 56.6998 39.7986 56.5125 39.6433 56.3571C39.4879 56.2017 39.3006 56.0819 39.0944 56.006L29.3257 52.406C29.0386 52.2994 28.791 52.1075 28.6162 51.8562C28.4414 51.6048 28.3477 51.3059 28.3477 50.9997C28.3477 50.6935 28.4414 50.3946 28.6162 50.1432C28.791 49.8919 29.0386 49.7 29.3257 49.5935L39.0944 45.9935C39.3006 45.9175 39.4879 45.7977 39.6433 45.6423C39.7986 45.4869 39.9185 45.2996 39.9944 45.0935L43.5944 35.3247C43.701 35.0376 43.8928 34.7901 44.1442 34.6152C44.3956 34.4404 44.6945 34.3467 45.0007 34.3467C45.3069 34.3467 45.6058 34.4404 45.8571 34.6152C46.1085 34.7901 46.3004 35.0376 46.4069 35.3247L50.0069 45.0935C50.0829 45.2996 50.2027 45.4869 50.3581 45.6423C50.5135 45.7977 50.7007 45.9175 50.9069 45.9935L60.6757 49.5935C60.9627 49.7 61.2103 49.8919 61.3852 50.1432C61.56 50.3946 61.6537 50.6935 61.6537 50.9997C61.6537 51.3059 61.56 51.6048 61.3852 51.8562C61.2103 52.1075 60.9627 52.2994 60.6757 52.406L50.9069 56.006C50.7007 56.0819 50.5135 56.2017 50.3581 56.3571C50.2027 56.5125 50.0829 56.6998 50.0069 56.906V56.906Z" stroke="#292929" stroke-width="3" stroke-linecap="round" stroke-linejoin="round"/>
<path d="M57 27V36" stroke="#292929" stroke-width="3" stroke-linecap="round" stroke-linejoin="round"/>
<path d="M61.5 31.5H52.5" stroke="#292929" stroke-width="3" stroke-linecap="round" stroke-linejoin="round"/>
<path d="M66 37.5V43.5" stroke="#292929" stroke-width="3" stroke-linecap="round" stroke-linejoin="round"/>
<path d="M69 40.5H63" stroke="#292929" stroke-width="3" stroke-linecap="round" stroke-linejoin="round"/>
</svg>
