<svg width="25" height="24" viewBox="0 0 25 24" fill="none" xmlns="http://www.w3.org/2000/svg">
<path d="M16.1499 5.21L17.5599 8.02999C17.7499 8.41999 18.2599 8.78999 18.6899 8.86999L21.2399 9.28999C22.8699 9.55999 23.2499 10.74 22.0799 11.92L20.0899 13.91C19.7599 14.24 19.5699 14.89 19.6799 15.36L20.2499 17.82C20.6999 19.76 19.6599 20.52 17.9499 19.5L15.5599 18.08C15.1299 17.82 14.4099 17.82 13.9799 18.08L11.5899 19.5C9.87989 20.51 8.8399 19.76 9.2899 17.82L9.85991 15.36C9.96991 14.9 9.7799 14.25 9.4499 13.91L7.45991 11.92C6.28991 10.75 6.66991 9.56999 8.29991 9.28999L10.8499 8.86999C11.2799 8.79999 11.7899 8.41999 11.9799 8.02999L13.3899 5.21C14.1399 3.68 15.3799 3.68 16.1499 5.21Z" stroke="#989898" stroke-width="1.5" stroke-linecap="round" stroke-linejoin="round"/>
<path d="M8.75989 5H2.75989" stroke="#989898" stroke-width="1.5" stroke-linecap="round" stroke-linejoin="round"/>
<path d="M5.75989 19H2.75989" stroke="#989898" stroke-width="1.5" stroke-linecap="round" stroke-linejoin="round"/>
<path d="M3.75989 12H2.75989" stroke="#989898" stroke-width="1.5" stroke-linecap="round" stroke-linejoin="round"/>
</svg>
