<svg width="25" height="24" viewBox="0 0 25 24" fill="none" xmlns="http://www.w3.org/2000/svg">
<path d="M12.8957 17.8781L17.6207 20.8781C18.23 21.2625 18.98 20.6906 18.8019 19.9875L17.4332 14.6063C17.3961 14.4571 17.402 14.3005 17.4501 14.1546C17.4982 14.0086 17.5866 13.8792 17.705 13.7813L21.9425 10.2469C22.4957 9.78752 22.2144 8.8594 21.4925 8.81252L15.9613 8.45627C15.8104 8.44749 15.6653 8.39494 15.5437 8.30503C15.4222 8.21513 15.3295 8.09177 15.2769 7.95002L13.2144 2.75627C13.1598 2.60618 13.0603 2.47653 12.9295 2.38491C12.7987 2.29329 12.6429 2.24414 12.4832 2.24414C12.3234 2.24414 12.1676 2.29329 12.0368 2.38491C11.906 2.47653 11.8065 2.60618 11.7519 2.75627L9.6894 7.95002C9.63683 8.09177 9.54412 8.21513 9.42258 8.30503C9.30104 8.39494 9.15595 8.44749 9.00503 8.45627L3.47378 8.81252C2.7519 8.8594 2.47065 9.78752 3.02378 10.2469L7.26128 13.7813C7.37972 13.8792 7.46807 14.0086 7.51618 14.1546C7.56428 14.3005 7.57016 14.4571 7.53315 14.6063L6.26753 19.5938C6.0519 20.4375 6.9519 21.1219 7.67378 20.6625L12.0707 17.8781C12.1939 17.7997 12.337 17.7581 12.4832 17.7581C12.6293 17.7581 12.7724 17.7997 12.8957 17.8781V17.8781Z" stroke="#656565" stroke-width="1.5" stroke-linecap="round" stroke-linejoin="round"/>
</svg>
