<svg width="120" height="121" viewBox="0 0 120 121" fill="none" xmlns="http://www.w3.org/2000/svg">
<path d="M60 120.699C93.1371 120.699 120 93.8358 120 60.6987C120 27.5616 93.1371 0.69873 60 0.69873C26.8629 0.69873 0 27.5616 0 60.6987C0 93.8358 26.8629 120.699 60 120.699Z" fill="#D7FFEB"/>
<path d="M60.0017 99.4081C81.3804 99.4081 98.7113 82.0772 98.7113 60.6984C98.7113 39.3197 81.3804 21.9888 60.0017 21.9888C38.6229 21.9888 21.292 39.3197 21.292 60.6984C21.292 82.0772 38.6229 99.4081 60.0017 99.4081Z" fill="#70FFC4"/>
<path d="M55.8786 64.7244C60.0389 57.2041 65.9129 51.7719 73.8531 48.6616C65.9893 55.3239 59.904 63.8356 56.1441 73.4319C55.9536 73.1319 55.7962 72.8851 55.6454 72.6376C53.3062 68.7871 50.7336 65.1226 47.2536 62.1886C46.9415 61.9614 46.7196 61.6312 46.627 61.2564C46.5344 60.8816 46.577 60.4861 46.7474 60.1396C46.9601 59.5667 47.3138 59.0567 47.776 58.6569C48.2381 58.257 48.7936 57.9802 49.3912 57.8521C49.6767 57.8336 49.9627 57.8782 50.2291 57.9827C50.4955 58.0872 50.7356 58.249 50.9324 58.4566C52.4324 60.1711 53.8357 61.9726 55.2629 63.7509C55.485 64.0644 55.6906 64.3893 55.8786 64.7244Z" fill="#151515"/>
</svg>
