<svg width="32" height="32" viewBox="0 0 32 32" fill="none" xmlns="http://www.w3.org/2000/svg">
<path d="M5.56052 20.4002L11.6006 26.4402C14.0806 28.9203 18.1073 28.9203 20.6006 26.4402L26.454 20.5869C28.934 18.1068 28.934 14.0801 26.454 11.5868L20.4006 5.56008C19.134 4.2934 17.3873 3.6134 15.6006 3.70673L8.93388 4.02673C6.26719 4.14674 4.14718 6.26675 4.01384 8.92011L3.69384 15.5868C3.61384 17.3868 4.29385 19.1335 5.56052 20.4002Z" stroke="#292929" stroke-width="1.5" stroke-linecap="round" stroke-linejoin="round"/>
<path d="M12.6664 16.0002C14.5073 16.0002 15.9997 14.5078 15.9997 12.6669C15.9997 10.8259 14.5073 9.3335 12.6664 9.3335C10.8254 9.3335 9.33301 10.8259 9.33301 12.6669C9.33301 14.5078 10.8254 16.0002 12.6664 16.0002Z" stroke="#292929" stroke-width="1.5" stroke-linecap="round"/>
</svg>
