<svg width="25" height="24" viewBox="0 0 25 24" fill="none" xmlns="http://www.w3.org/2000/svg">
<path d="M13.0857 10.87C12.9857 10.86 12.8657 10.86 12.7557 10.87C10.3757 10.79 8.48572 8.84 8.48572 6.44C8.48572 3.99 10.4657 2 12.9257 2C15.3757 2 17.3657 3.99 17.3657 6.44C17.3557 8.84 15.4657 10.79 13.0857 10.87Z" stroke="#989898" stroke-width="1.5" stroke-linecap="round" stroke-linejoin="round"/>
<path d="M8.08569 14.56C5.66569 16.18 5.66569 18.82 8.08569 20.43C10.8357 22.27 15.3457 22.27 18.0957 20.43C20.5157 18.81 20.5157 16.17 18.0957 14.56C15.3557 12.73 10.8457 12.73 8.08569 14.56Z" stroke="#989898" stroke-width="1.5" stroke-linecap="round" stroke-linejoin="round"/>
</svg>
